<?xml version="1.0" encoding="utf-8"?>
<!-- Generator: Adobe Illustrator 19.2.0, SVG Export Plug-In . SVG Version: 6.00 Build 0)  -->
<svg version="1.1" id="Layer_1" xmlns="http://www.w3.org/2000/svg" xmlns:xlink="http://www.w3.org/1999/xlink" x="0px" y="0px"
	 viewBox="0 0 46.7 46.7" style="enable-background:new 0 0 46.7 46.7;" xml:space="preserve">
<path d="M45.8,28.3c3.2-8-3.2-14.1-8.4-17l5.4-5.4V9h2.8l0.1-8l-8,0.1v2.8h3.1l-5.4,5.4c-2.9-5.2-9-11.7-17-8.4
	C10.1,4.2,2.2,0.2,2.1,0.2L0,4.3c0.1,0,0.7,0.4,1.7,0.8l11.4,26.6l-1.8,1.7l-3.8,0.3l0.1,1.9l3.8-0.3l-0.3,3.8l1.9,0.1l0.3-3.8
	l1.7-1.7L41.6,45c0.4,1,0.7,1.6,0.8,1.7l4.2-2.2C46.5,44.5,42.4,36.6,45.8,28.3z M5.2,6.2C9,7.1,14.4,7.6,20.1,5.3
	c6.3-2.6,10.7,5.4,11.7,7.6L15.2,29.5L5.2,6.2z M41.4,26.6c-2.3,5.7-1.8,11.1-0.9,14.9l-23.4-9.9l16.7-16.7
	C36,15.9,43.9,20.3,41.4,26.6z"/>
</svg>
